<svg height="512" viewBox="0 0 50 58" width="512" xmlns="http://www.w3.org/2000/svg"><g id="Page-1" fill="none" fill-rule="evenodd"><g id="044---Algorithm" fill-rule="nonzero"><path id="Shape" d="m45 42h1c2.209139 0 4-1.790861 4-4v-34c0-2.209139-1.790861-4-4-4h-42c-2.209139 0-4 1.790861-4 4v34c0 2.209139 1.790861 4 4 4z" fill="#35495e"/><path id="Shape" d="m50 4v4h-50v-4c0-2.209139 1.790861-4 4-4h42c2.209139 0 4 1.790861 4 4z" fill="#95a5a5"/><circle id="Oval" cx="4" cy="4" fill="#e64c3c" r="1"/><circle id="Oval" cx="8" cy="4" fill="#f0c419" r="1"/><circle id="Oval" cx="12" cy="4" fill="#7ed09e" r="1"/><path id="Shape" d="m46 3c0-.55228475-.4477153-1-1-1s-1 .44771525-1 1c-.5522847 0-1 .44771525-1 1s.4477153 1 1 1c0 .55228475.4477153 1 1 1s1-.44771525 1-1c.5522847 0 1-.44771525 1-1s-.4477153-1-1-1z" fill="#547580"/><path id="Shape" d="m40 3h-10c-.5522847 0-1 .44771525-1 1s.4477153 1 1 1h10c.5522847 0 1-.44771525 1-1s-.4477153-1-1-1z" fill="#7f8c8d"/><path id="Shape" d="m22.923 16.382c.1011169-.2446294.1011169-.5193706 0-.764-.0499045-.1220319-.123681-.2328667-.217-.326l-3-3c-.3923789-.3789722-1.0160848-.3735524-1.4018186.0121814s-.3911536 1.0094397-.0121814 1.4018186l1.294 1.294h-5.586c-.5522847 0-1 .4477153-1 1s.4477153 1 1 1h5.586l-1.293 1.293c-.2599566.2510745-.3642126.6228779-.2726972.9725073.0915155.3496295.3645604.6226744.7141899.7141899.3496294.0915154.7214328-.0127406.9725073-.2726972l3-3c.0928494-.0929296.1662756-.2034088.216-.325z" fill="#955ba5"/><path id="Shape" d="m43 28h-2c-.5522847 0-1-.4477153-1-1s.4477153-1 1-1h2v-9h-3c-.5522847 0-1-.4477153-1-1s.4477153-1 1-1h3c1.1045695 0 2 .8954305 2 2v9c0 1.1045695-.8954305 2-2 2z" fill="#955ba5"/><path id="Shape" d="m33 26h-5.586l1.293-1.293c.3789722-.3923789.3735524-1.0160848-.0121814-1.4018186s-1.0094397-.3911536-1.4018186-.0121814l-3 3c-.093319.0931333-.1670955.2039681-.217.326-.1011169.2446294-.1011169.5193706 0 .764.0499045.1220319.123681.2328667.217.326l3 3c.3923789.3789722 1.0160848.3735524 1.4018186-.0121814s.3911536-1.0094397.0121814-1.4018186l-1.293-1.295h5.586c.5522847 0 1-.4477153 1-1s-.4477153-1-1-1z" fill="#955ba5"/><path id="Shape" d="m25 39c-.5522847 0-1-.4477153-1-1v-3h-17c-1.1045695 0-2-.8954305-2-2v-5c0-1.1045695.8954305-2 2-2h4c.5522847 0 1 .4477153 1 1s-.4477153 1-1 1h-4v5h17c1.1045695 0 2 .8954305 2 2v3c0 .5522847-.4477153 1-1 1z" fill="#955ba5"/><rect id="Rectangle-path" fill="#ff5364" height="20" rx="2" width="40" x="5" y="38"/><g fill="#f0c419"><path id="Shape" d="m13 51c-.5522847 0-1-.4477153-1-1v-.42c-.0206061-1.1833978.6759044-2.2619421 1.763-2.73.8207878-.3361737 1.3221168-1.172779 1.2315036-2.0551024-.0906133-.8823234-.7515204-1.5995689-1.6235036-1.7618976-.5853612-.1105026-1.1895137.0456803-1.6479821.4260293-.4584684.3803489-.7235277.9452708-.7230179 1.5409707 0 .5522847-.4477153 1-1 1-.55228475 0-1-.4477153-1-1 .00147446-2.0074637 1.4906652-3.7028895 3.4811711-3.9632715 1.990506-.2603821 3.8656903.9949431 4.3834799 2.9344808s-.482221 3.9624407-2.337651 4.7287907c-.334152.1633951-.5406974.5082906-.527.88v.42c0 .5522847-.4477153 1-1 1z"/><circle id="Oval" cx="13" cy="54" r="1"/><path id="Shape" d="m25 51c-.5522847 0-1-.4477153-1-1v-.42c-.0206061-1.1833978.6759044-2.2619421 1.763-2.73.8207878-.3361737 1.3221168-1.172779 1.2315036-2.0551024-.0906133-.8823234-.7515204-1.5995689-1.6235036-1.7618976-.5853612-.1105026-1.1895137.0456803-1.6479821.4260293-.4584684.3803489-.7235277.9452708-.7230179 1.5409707 0 .5522847-.4477153 1-1 1s-1-.4477153-1-1c.0014745-2.0074637 1.4906652-3.7028895 3.4811711-3.9632715 1.990506-.2603821 3.8656903.9949431 4.3834799 2.9344808s-.482221 3.9624407-2.337651 4.7287907c-.334152.1633951-.5406974.5082906-.527.88v.42c0 .5522847-.4477153 1-1 1z"/><circle id="Oval" cx="25" cy="54" r="1"/><path id="Shape" d="m37 51c-.5522847 0-1-.4477153-1-1v-.42c-.0206061-1.1833978.6759044-2.2619421 1.763-2.73.8207878-.3361737 1.3221168-1.172779 1.2315036-2.0551024-.0906133-.8823234-.7515204-1.5995689-1.6235036-1.7618976-.5853612-.1105026-1.1895137.0456803-1.6479821.4260293-.4584684.3803489-.7235277.9452708-.7230179 1.5409707 0 .5522847-.4477153 1-1 1s-1-.4477153-1-1c.0014745-2.0074637 1.4906652-3.7028895 3.4811711-3.9632715 1.990506-.2603821 3.8656903.9949431 4.3834799 2.9344808s-.482221 3.9624407-2.337651 4.7287907c-.334152.1633951-.5406974.5082906-.527.88v.42c0 .5522847-.4477153 1-1 1z"/><circle id="Oval" cx="37" cy="54" r="1"/><circle id="Oval" cx="10" cy="16" r="4"/><circle id="Oval" cx="37" cy="27" r="4"/></g><rect id="Rectangle-path" fill="#67b9cc" height="6" rx="2" width="18" x="22" y="13"/><rect id="Rectangle-path" fill="#67b9cc" height="6" rx="2" width="14" x="11" y="24"/></g></g></svg>