<svg id="Capa_1" enable-background="new 0 0 512 512" height="512" viewBox="0 0 512 512" width="512" xmlns="http://www.w3.org/2000/svg"><g><path d="m131.75 304.5c-12.426 0-22.5 10.073-22.5 22.5 11.74 2.9 9.089 7.5 22.5 7.5s10.76-4.6 22.5-7.5c0-12.427-10.074-22.5-22.5-22.5z" fill="#405acc"/><path d="m131.75 22.5v282c49.691 0 124.25-82.589 124.25-157.75 0-68.621-55.629-124.25-124.25-124.25z" fill="#405acc"/><path d="m226 146.75c0-68.621-42.197-124.25-94.25-124.25-68.622 0-124.25 55.629-124.25 124.25 0 75.161 74.559 157.75 124.25 157.75 37.693 0 94.25-82.589 94.25-157.75z" fill="#4271db"/><path d="m380.25 304.5c-12.426 0-22.5 10.073-22.5 22.5 11.74 2.9 9.089 7.5 22.5 7.5s10.76-4.6 22.5-7.5c0-12.427-10.074-22.5-22.5-22.5z" fill="#db2116"/><path d="m380.25 22.5v282c49.691 0 124.25-82.589 124.25-157.75 0-68.621-55.629-124.25-124.25-124.25z" fill="#db2116"/><path d="m380.25 22.5c-68.622 0-124.25 55.629-124.25 124.25 0 75.161 74.559 157.75 124.25 157.75 37.693 0 94.25-82.589 94.25-157.75 0-68.621-42.197-124.25-94.25-124.25z" fill="#ff3a2f"/><path d="m256 319.5c-12.426 0-22.5 10.073-22.5 22.5 11.74 2.9 9.089 7.5 22.5 7.5s10.76-4.6 22.5-7.5c0-12.427-10.074-22.5-22.5-22.5z" fill="#ebebeb"/><path d="m256 7.5v312c54.99 0 137.5-91.358 137.5-174.5 0-75.939-61.561-137.5-137.5-137.5z" fill="#ebebeb"/><path d="m363.5 145c0-75.939-48.129-137.5-107.5-137.5-75.939 0-137.5 61.561-137.5 137.5 0 83.142 82.51 174.5 137.5 174.5 42.992 0 107.5-91.358 107.5-174.5z" fill="#fff"/><path d="m380.25 15c-15.736 0-31.095 2.743-45.713 8.159-22.646-14.647-49.619-23.159-78.537-23.159-28.922 0-55.89 8.516-78.538 23.166-14.619-5.416-29.976-8.166-45.712-8.166-72.647 0-131.75 59.103-131.75 131.75 0 36.342 16.479 77.106 45.212 111.841 19.781 23.914 42.674 41.242 63.732 48.951-4.48 5.243-7.194 12.038-7.194 19.458 0 3.449 2.353 6.454 5.702 7.281 3.764.93 5.371 1.959 7.232 3.151 2.717 1.741 5.344 3.203 9.566 3.976v43.092c0 10.607 5.604 16.211 9.696 20.304 3.678 3.678 5.304 5.481 5.304 9.698 0 4.216-1.626 6.02-5.303 9.698-4.092 4.093-9.697 9.697-9.697 20.305 0 10.606 5.604 16.21 9.697 20.303 3.677 3.677 5.303 5.48 5.303 9.695s-1.626 6.018-5.303 9.695c-4.092 4.092-9.697 9.696-9.697 20.302 0 4.142 3.358 7.5 7.5 7.5s7.5-3.358 7.5-7.5c0-4.215 1.626-6.018 5.303-9.695 4.092-4.092 9.697-9.696 9.697-20.302s-5.604-16.21-9.697-20.303c-3.677-3.677-5.303-5.48-5.303-9.695 0-4.217 1.626-6.021 5.304-9.698 4.092-4.093 9.696-9.697 9.696-20.304s-5.604-16.212-9.697-20.305c-3.677-3.678-5.303-5.481-5.303-9.698v-43.092c4.222-.773 6.848-2.235 9.565-3.975 1.861-1.192 3.469-2.222 7.233-3.151 3.349-.827 5.702-3.832 5.702-7.281 0-7.389-2.69-14.158-7.136-19.392 9.285-3.378 18.953-8.683 28.753-15.804 16.37 14.789 33.519 25.51 49.596 31.005-4.344 5.205-6.963 11.897-6.963 19.19 0 3.449 2.353 6.454 5.702 7.281 3.764.93 5.371 1.959 7.232 3.151 2.717 1.741 5.344 3.203 9.566 3.976v28.092c0 10.607 5.604 16.211 9.696 20.304 3.678 3.678 5.304 5.481 5.304 9.698 0 4.216-1.626 6.02-5.303 9.698-4.092 4.093-9.697 9.697-9.697 20.305 0 10.606 5.604 16.21 9.697 20.303 3.677 3.677 5.303 5.48 5.303 9.695s-1.626 6.018-5.303 9.695c-4.092 4.092-9.697 9.696-9.697 20.302 0 4.142 3.358 7.5 7.5 7.5s7.5-3.358 7.5-7.5c0-4.215 1.626-6.018 5.303-9.695 4.092-4.092 9.697-9.696 9.697-20.302s-5.604-16.21-9.697-20.303c-3.677-3.677-5.303-5.48-5.303-9.695 0-4.217 1.626-6.021 5.304-9.698 4.092-4.093 9.696-9.697 9.696-20.304s-5.604-16.212-9.697-20.305c-3.677-3.678-5.303-5.481-5.303-9.698v-28.092c4.222-.773 6.848-2.235 9.565-3.975 1.861-1.192 3.469-2.222 7.233-3.151 3.349-.827 5.702-3.832 5.702-7.281 0-7.277-2.606-13.956-6.932-19.156 9.544-3.242 19.514-8.34 29.601-15.211 3.423-2.332 4.308-6.997 1.977-10.421-2.332-3.423-6.995-4.308-10.421-1.977-16.103 10.967-31.395 16.764-44.225 16.764-23.959 0-56.771-20.942-83.593-53.354-29.492-35.638-46.407-77.06-46.407-113.646 0-71.682 58.318-130 130-130s130 58.318 130 130c0 43.11-24.757 94.778-63.073 131.631-1.563 1.503-2.398 3.609-2.292 5.775.107 2.166 1.146 4.18 2.849 5.521 11.559 9.106 22.994 15.713 33.902 19.68-4.446 5.234-7.136 12.003-7.136 19.392 0 3.449 2.353 6.454 5.702 7.281 3.764.93 5.371 1.959 7.232 3.151 2.717 1.741 5.344 3.203 9.566 3.976v43.093c0 10.607 5.604 16.211 9.696 20.304 3.678 3.678 5.304 5.481 5.304 9.698 0 4.216-1.626 6.02-5.303 9.698-4.092 4.093-9.697 9.697-9.697 20.305 0 10.606 5.604 16.21 9.697 20.303 3.677 3.677 5.303 5.48 5.303 9.695s-1.626 6.018-5.303 9.695c-4.092 4.092-9.697 9.696-9.697 20.302 0 4.142 3.358 7.5 7.5 7.5s7.5-3.358 7.5-7.5c0-4.215 1.626-6.018 5.303-9.695 4.092-4.092 9.697-9.696 9.697-20.302s-5.604-16.21-9.697-20.303c-3.677-3.677-5.303-5.48-5.303-9.695 0-4.217 1.626-6.021 5.304-9.698 4.092-4.093 9.696-9.697 9.696-20.304s-5.604-16.212-9.697-20.305c-3.677-3.678-5.303-5.481-5.303-9.698v-43.092c4.222-.773 6.848-2.235 9.565-3.975 1.861-1.192 3.469-2.222 7.233-3.151 3.349-.827 5.702-3.832 5.702-7.281 0-7.421-2.714-14.215-7.194-19.458 21.058-7.709 43.951-25.037 63.732-48.951 28.733-34.736 45.212-75.5 45.212-111.842 0-72.647-59.103-131.75-131.75-131.75zm-234.379 306.937c-2.236 1.001-3.827 2.021-5.145 2.864-2.287 1.464-3.435 2.199-8.976 2.199-5.542 0-6.69-.735-8.977-2.2-1.317-.843-2.909-1.862-5.144-2.863 2.082-5.788 7.625-9.937 14.121-9.937s12.039 4.149 14.121 9.937zm124.25 15c-2.236 1.001-3.827 2.021-5.145 2.864-2.287 1.464-3.434 2.199-8.976 2.199s-6.69-.735-8.977-2.2c-1.317-.843-2.909-1.862-5.144-2.863 2.082-5.788 7.626-9.937 14.121-9.937s12.039 4.149 14.121 9.937zm-159.121-191.937c0 40.019 18.17 84.927 49.851 123.21 3.765 4.549 7.631 8.881 11.57 12.98-14.696 10.238-28.927 15.81-40.671 15.81-21.443 0-50.875-18.83-74.98-47.97-26.155-31.619-41.77-69.854-41.77-102.28 0-64.376 52.374-116.75 116.75-116.75 10.541 0 20.888 1.392 30.903 4.14-31.564 26.619-51.653 66.435-51.653 110.86zm283.371 176.937c-2.236 1.001-3.827 2.021-5.145 2.864-2.287 1.464-3.435 2.199-8.976 2.199-5.542 0-6.69-.735-8.977-2.2-1.317-.843-2.909-1.862-5.144-2.863 2.082-5.788 7.625-9.937 14.121-9.937s12.039 4.149 14.121 9.937zm60.859-72.907c-24.105 29.141-53.537 47.97-74.98 47.97-11.744 0-25.979-5.565-40.679-15.805 16.466-17.12 30.655-37.176 41.318-58.466 13.157-26.272 20.111-53.15 20.111-77.729 0-44.427-20.079-84.248-51.645-110.867 10.013-2.746 20.357-4.133 30.895-4.133 64.376 0 116.75 52.374 116.75 116.75 0 32.426-15.615 70.662-41.77 102.28z"/></g></svg>