<svg id="Capa_1" enable-background="new 0 0 512.067 512.067" height="512" viewBox="0 0 512.067 512.067" width="512" xmlns="http://www.w3.org/2000/svg"><g><g><g><g><g><path d="m327.064 343.695-18.875-10.897c-5.033-2.906-6.183-9.671-2.394-14.077l22.017-25.598 23.799 13.74-11.16 31.867c-1.92 5.484-8.354 7.87-13.387 4.965z" fill="#00a3c9"/><path d="m484.744 236.767c-35.002 60.625-105.382 98.368-150.336 72.414-44.953-25.954-47.457-105.776-12.455-166.401s94.255-79.095 139.209-53.142 58.584 86.503 23.582 147.129z" fill="#61d1e1"/><path d="m484.74 236.769c-34.999 60.62-105.378 98.362-150.331 72.408-5.332-3.078-10.074-6.919-14.221-11.401 44.183 10.059 102.509-25.594 133.354-79.019 30.85-53.433 23.921-106.803-8.936-136.48 5.681 1.824 11.213 4.279 16.553 7.362 44.954 25.954 58.585 86.502 23.581 147.13z" fill="#33c4d9"/></g></g><g><g><path d="m203.877 332.797-18.875 10.897c-5.033 2.906-11.467.519-13.388-4.965l-11.16-31.867 23.799-13.74 22.017 25.598c3.79 4.406 2.639 11.172-2.393 14.077z" fill="#f98824"/><path d="m190.114 142.779c35.002 60.625 32.498 140.448-12.455 166.401s-115.334-11.788-150.336-72.413-21.371-121.176 23.582-147.129 104.207-7.484 139.209 53.141z" fill="#fca62f"/><path d="m190.115 142.783c34.999 60.62 32.495 140.441-12.458 166.394-5.332 3.078-11.029 5.265-16.984 6.615 30.803-33.234 29.09-101.573-1.755-154.998-30.85-53.433-80.534-74.118-122.663-60.501 4.42-4.008 9.312-7.571 14.652-10.654 44.952-25.953 104.204-7.484 139.208 53.144z" fill="#fb9927"/></g></g></g><g><g><path d="m266.931 308.009h-21.795c-5.811 0-10.19-5.284-9.111-10.994l6.268-33.178h27.481l6.268 33.178c1.079 5.71-3.3 10.994-9.111 10.994z" fill="#e22334"/><path d="m350.021 136.567c0 70.004-42.08 137.88-93.987 137.88s-93.987-67.876-93.987-137.88 42.08-115.626 93.987-115.626 93.987 45.622 93.987 115.626z" fill="#fb4a59"/><path d="m350.019 136.571c0 69.998-42.079 137.873-93.986 137.873-6.157 0-12.184-.955-18.016-2.763 43.293-13.38 75.979-73.42 75.979-135.11 0-61.699-32.686-104.455-75.979-113.727 5.832-1.261 11.85-1.901 18.016-1.901 51.908 0 93.986 45.621 93.986 115.628z" fill="#f82f40"/></g></g></g><g><g><path d="m510.318 148.877c-5.094-28.425-21.22-51.771-45.407-65.735-35.314-20.389-77.714-15.585-112.569 12.169-3.884-14.653-9.901-28.018-17.965-39.612-14.583-20.964-35.509-35.25-58.922-40.226-4.049-.86-8.033 1.726-8.895 5.777-.861 4.052 1.726 8.034 5.777 8.895 41.979 8.921 70.183 51.688 70.183 106.421 0 32.607-9.58 65.795-26.284 91.055-16.77 25.359-38.15 39.326-60.203 39.326-23.984 0-47.503-16.88-64.524-46.313-2.073-3.586-6.661-4.81-10.247-2.738-3.586 2.074-4.812 6.662-2.737 10.248 7.222 12.488 15.578 23.02 24.708 31.373-4.976 20.031-15.086 34.948-29.325 43.169-19.099 11.026-44.598 9.621-71.801-3.956-27.096-13.523-51.985-37.475-68.289-65.713-15.702-27.197-21.849-56.139-17.306-81.494 4.301-24.001 17.847-43.672 38.143-55.39 31.039-17.919 71.018-11.241 101.701 15.602-1.187 8.002-1.811 16.292-1.811 24.832 0 19.146 2.943 38.209 8.747 56.659 1.008 3.203 3.964 5.251 7.152 5.251.745 0 1.504-.112 2.253-.348 3.951-1.243 6.146-5.454 4.903-9.405-5.271-16.753-8.056-34.789-8.056-52.158 0-55.286 27.348-97.016 69.671-106.313 4.046-.889 6.604-4.889 5.716-8.934s-4.884-6.607-8.935-5.716c-23.263 5.11-44.037 19.446-58.498 40.367-7.972 11.534-13.926 24.812-17.78 39.358-34.826-27.693-77.413-32.479-112.563-12.185-24.187 13.964-40.313 37.31-45.407 65.735-5.241 29.253 1.356 60.941 19.08 91.639 17.736 30.721 44.92 56.831 74.581 71.635 17.218 8.593 34.048 12.907 49.608 12.907 4.607 0 9.1-.387 13.461-1.145l6.057 17.295c1.656 4.729 5.3 8.439 9.997 10.182 1.897.704 3.873 1.052 5.841 1.052 2.905 0 5.791-.759 8.378-2.252l.924-.533c2.535 12.173 11.431 34.892 42.551 52.129 19.416 10.755 36.99 27.861 39.545 38.407 1.019 8.921.206 17.294-2.575 24.377-2.47 6.293-7.696 14.431-18.571 17.462-3.99 1.112-6.323 5.248-5.211 9.238.925 3.317 3.938 5.488 7.221 5.488.666 0 1.345-.09 2.018-.277 13.13-3.66 23.255-13.046 28.508-26.431 4.707-11.994 5.275-26.175 1.987-40.853-2.294-19.349 2.291-38.364 13.68-56.638 8.233-13.21 17.636-21.905 20.695-24.559l3.792 2.189c2.587 1.494 5.473 2.252 8.378 2.252 1.968 0 3.944-.348 5.841-1.052 4.697-1.742 8.341-5.453 9.997-10.182l6.065-17.318c4.349.75 8.83 1.134 13.427 1.134 14.696 0 30.538-3.83 46.737-11.469 3.746-1.767 5.352-6.236 3.584-9.983-1.768-3.748-6.236-5.351-9.982-3.584-26.221 12.365-50.797 13.324-69.203 2.697-14.214-8.207-24.335-23.11-29.317-43.111 7.135-6.552 13.819-14.473 19.907-23.68 18.285-27.65 28.772-63.854 28.772-99.329 0-8.414-.604-16.587-1.756-24.478 31.006-28.156 69.904-34.283 101.647-15.956 20.296 11.718 33.842 31.389 38.143 55.391 4.543 25.354-1.603 54.296-17.305 81.493-10.655 18.454-25.066 35.238-41.678 48.538-3.233 2.588-3.756 7.309-1.167 10.542 1.481 1.85 3.66 2.813 5.859 2.813 1.644 0 3.3-.538 4.683-1.646 18.053-14.454 33.715-32.693 45.293-52.747 17.723-30.696 24.321-62.385 19.078-91.638zm-244.88 132.407 3.235 17.124c.127.676-.135 1.167-.377 1.46-.243.292-.677.642-1.365.642h-21.795c-.688 0-1.122-.349-1.365-.642-.242-.293-.504-.784-.377-1.46l3.239-17.14c3.114.442 6.25.68 9.401.68 3.156-.001 6.292-.23 9.404-.664zm-85.689 56.042c-.356-.132-.829-.426-1.057-1.076l-5.757-16.439c2.912-1.18 5.739-2.557 8.473-4.136 2.73-1.576 5.32-3.357 7.798-5.293l11.378 13.228c.449.522.468 1.079.404 1.454s-.266.894-.861 1.238l-18.875 10.898c-.599.344-1.147.258-1.503.126zm23.926 4.248 3.952-2.282c4.339-2.505 7.309-6.774 8.148-11.713.84-4.939-.552-9.951-3.818-13.75l-11.97-13.917c6.949-8.351 12.35-18.588 16.037-30.446 5.19 3.365 10.556 6.074 16.043 8.101l-3.411 18.055c-.931 4.923.369 9.958 3.566 13.816s7.904 6.07 12.914 6.07h1.609c-4.154 14.225-10.453 48.156 9.186 83.839-5.417-4.058-11.042-7.695-16.437-10.683-34.022-18.845-35.738-44.139-35.819-47.09zm126.983-25.898c2.731 1.577 5.56 2.953 8.475 4.13l-5.759 16.444c-.228.649-.7.944-1.057 1.076-.356.133-.904.219-1.503-.126l-18.875-10.897c-.596-.344-.797-.863-.861-1.238-.063-.375-.045-.931.403-1.453l11.379-13.23c2.479 1.936 5.069 3.718 7.798 5.294zm-18.573-15.769-11.976 13.924c-3.267 3.798-4.658 8.809-3.818 13.748s3.81 9.208 8.148 11.714l1.464.846c-4.938 4.754-12.532 12.932-19.508 24.013-6.755 10.731-11.491 21.931-14.172 33.347-.249-.415-.492-.831-.746-1.246-23.087-37.577-11.527-73.831-8.968-80.743h4.421c5.01 0 9.717-2.212 12.914-6.07s4.497-8.894 3.566-13.816l-3.402-18.008c5.495-2.016 10.862-4.723 16.056-8.094 3.689 11.83 9.086 22.047 16.021 30.385z"/></g></g></g></svg>