<svg id="Layer_1" enable-background="new 0 0 256 256" height="512" viewBox="0 0 256 256" width="512" xmlns="http://www.w3.org/2000/svg"><g><g><path d="m161.651 124.124c-2.749 2.002-2.749 6.081 0 8.083 16.042 11.681 26.474 30.596 26.474 51.959v41.67h-120.25v-41.67c0-21.363 10.432-40.277 26.474-51.959 2.749-2.002 2.749-6.081 0-8.083-16.042-11.681-26.474-30.596-26.474-51.959v-42h120.25v42c0 21.363-10.431 40.278-26.474 51.959z" fill="#72c1e8"/></g><g><path d="m179.125 219.335c-1.381 0-2.5-1.119-2.5-2.5v-4.122c0-1.381 1.119-2.5 2.5-2.5s2.5 1.119 2.5 2.5v4.122c0 1.381-1.119 2.5-2.5 2.5zm0-14.122c-1.381 0-2.5-1.119-2.5-2.5v-18.548c0-16.8-8.128-32.748-21.742-42.662-9.043-6.581-9.048-20.091 0-26.676 13.614-9.913 21.742-25.862 21.742-42.662v-33c0-1.381 1.119-2.5 2.5-2.5s2.5 1.119 2.5 2.5v33c0 18.394-8.897 35.853-23.8 46.704-6.303 4.589-6.309 13.999.001 18.592 14.902 10.852 23.799 28.311 23.799 46.704v18.548c0 1.381-1.119 2.5-2.5 2.5z" fill="#c5e5ff"/></g><g><path d="m51.5 18c0 6.579 5.273 12.165 12.25 12.165 4.376 0 129.472 0 128.585 0 6.719 0 12.165-5.446 12.165-12.165 0-6.719-5.446-12.165-12.165-12.165h-128.67c-6.719 0-12.165 5.446-12.165 12.165z" fill="#fc5d3d"/></g><g><path d="m192.25 225.835h-128.5-.085c-6.719 0-12.165 5.446-12.165 12.165 0 6.719 5.446 12.165 12.165 12.165h128.67c6.719 0 12.165-5.446 12.165-12.165 0-6.719-5.446-12.165-12.165-12.165z" fill="#fc5d3d"/></g><g><path d="m192.335 243.665h-113.027c-1.381 0-2.5-1.119-2.5-2.5s1.119-2.5 2.5-2.5h113.027c.367 0 .665-.298.665-.665 0-1.381 1.119-2.5 2.5-2.5s2.5 1.119 2.5 2.5c0 3.124-2.541 5.665-5.665 5.665zm-123.027 0h-5.643c-1.381 0-2.5-1.119-2.5-2.5s1.119-2.5 2.5-2.5h5.643c1.381 0 2.5 1.119 2.5 2.5s-1.12 2.5-2.5 2.5z" fill="#ffcbc2"/></g><g><path d="m192.335 23.665h-113.027c-1.381 0-2.5-1.119-2.5-2.5s1.119-2.5 2.5-2.5h113.027c.367 0 .665-.298.665-.665 0-1.381 1.119-2.5 2.5-2.5s2.5 1.119 2.5 2.5c0 3.124-2.541 5.665-5.665 5.665zm-123.027 0h-5.643c-1.381 0-2.5-1.119-2.5-2.5s1.119-2.5 2.5-2.5h5.643c1.381 0 2.5 1.119 2.5 2.5s-1.12 2.5-2.5 2.5z" fill="#ffcbc2"/></g><g><path d="m68.729 173.38c-1.35-.17-2.62.8-2.8 2.15v.01c-.181 1.328.745 2.61 2.16 2.8 1.548.137 2.64-.92 2.8-2.16 0-.01 0-.01 0-.02.171-1.36-.799-2.6-2.16-2.78z"/><path d="m188.13 52.66c-1.38 0-2.51 1.12-2.51 2.5s1.13 2.5 2.51 2.5c1.37 0 2.49-1.12 2.49-2.5s-1.12-2.5-2.49-2.5z"/><path d="m84.41 50.819c-.95-.949-2.601-.949-3.54 0-.971.971-.971 2.561 0 3.53 2.156 2.156 4.343 4.343 9.29 9.29.98.98 2.562.968 3.529 0 .98-.979.98-2.56 0-3.54l-2.874-2.875 12.164-12.156c1.303-1.301.789-3.563-.979-4.14l-6.561-2.18c-1.3-.431-2.739.31-3.17 1.59-.429 1.35.295 2.729 1.59 3.16l2.721.899-9.299 9.291z"/><path d="m119.8 82.939c-.94-.939-2.59-.939-3.54 0-.939.941-1.008 2.511 0 3.54l8.47 8.46c.964.984 2.56.993 3.53 0 .979-.957.996-2.555 0-3.529l-2.463-2.467 10.933-10.934c1.324-1.324.784-3.567-.979-4.14l-5.98-1.99c-1.29-.42-2.739.31-3.16 1.59-.43 1.309.268 2.727 1.591 3.16l2.13.71-8.067 8.066z"/><path d="m136.729 46.18-4.64-4.649c-3.539-3.541-9.314-3.529-12.82 0-3.534 3.534-3.548 9.271 0 12.819l4.641 4.65c3.501 3.501 9.23 3.569 12.819 0 3.542-3.542 3.54-9.303 0-12.82zm-3.529 9.28c-1.646 1.623-4.219 1.55-5.75 0l-4.65-4.641c-1.614-1.635-1.56-4.188 0-5.75 1.605-1.605 4.201-1.569 5.75 0l4.65 4.641c1.59 1.611 1.583 4.145 0 5.75z"/><path d="m136.729 112.06-4.64-4.64c-3.546-3.567-9.329-3.531-12.82 0-3.558 3.535-3.526 9.315 0 12.82l4.641 4.64c3.579 3.579 9.3 3.486 12.81.01 3.563-3.529 3.558-9.304.009-12.83zm-3.529 9.28c-1.6 1.598-4.159 1.589-5.761.01l-4.64-4.649c-1.566-1.568-1.609-4.121 0-5.75 1.594-1.576 4.121-1.599 5.76 0l4.641 4.64c1.598 1.618 1.575 4.174 0 5.749z"/><path d="m169.5 40.93-6.561-2.18c-1.29-.431-2.739.31-3.159 1.59-.445 1.33.31 2.734 1.59 3.16l2.71.899-9.293 9.293-2.876-2.874c-.94-.949-2.591-.949-3.53 0-.97.972-.979 2.551 0 3.53 2.156 2.156 4.343 4.343 9.29 9.29.994.994 2.572.956 3.53 0 .97-.979.97-2.56 0-3.54l-2.876-2.873 12.166-12.157c1.297-1.318.79-3.558-.991-4.138z"/><path d="m118.51 207.37c0 5.229 4.26 9.489 9.49 9.489 5.229 0 9.49-4.26 9.49-9.489v-6.99c0-5.24-4.261-9.49-9.49-9.49-5.23 0-9.49 4.25-9.49 9.49zm4.99-6.99c.01-2.48 2.03-4.49 4.5-4.5 2.47.01 4.49 2.02 4.49 4.5v6.99c0 2.47-2.021 4.489-4.49 4.489s-4.49-2.02-4.5-4.489z"/><path d="m85.53 210.58c-1.381 0-2.5 1.13-2.5 2.5 0 1.38 1.119 2.5 2.5 2.5h13.13c1.38 0 2.5-1.12 2.5-2.5 0-1.37-1.12-2.5-2.5-2.5h-4.06v-17.19c0-1.884-1.999-3.061-3.62-2.24l-6.18 3.101c-1.268.634-1.73 2.139-1.12 3.359.601 1.2 2.15 1.721 3.36 1.11l2.56-1.28v13.141h-4.07z"/><path d="m162.78 191.149-6.181 3.101c-1.254.638-1.722 2.138-1.109 3.359.6 1.2 2.149 1.721 3.359 1.11l2.55-1.28v13.141h-4.06c-1.38 0-2.5 1.13-2.5 2.5 0 1.38 1.12 2.5 2.5 2.5h13.13c1.38 0 2.5-1.12 2.5-2.5 0-1.37-1.12-2.5-2.5-2.5h-4.07v-17.19c0-1.93-2.011-3.044-3.619-2.241z"/><path d="m121.43 167.979c-1.37 0-2.5 1.12-2.5 2.5s1.13 2.5 2.5 2.5h13.14c1.37 0 2.5-1.12 2.5-2.5s-1.13-2.5-2.5-2.5h-4.07v-17.199c0-1.89-1.985-3.048-3.62-2.23l-6.18 3.1c-1.234.618-1.73 2.12-1.11 3.36.6 1.2 2.15 1.72 3.35 1.11l2.561-1.28v13.14h-4.071z"/><path d="m105.47 81.439-4.65-4.64c-3.526-3.547-9.288-3.551-12.819 0 0 0-.01 0-.01.01-3.613 3.613-3.439 9.362.01 12.811l4.649 4.64c3.417 3.437 9.17 3.63 12.82 0 3.6-3.601 3.464-9.357 0-12.821zm-3.54 9.29c-1.607 1.589-4.156 1.574-5.75 0l-4.64-4.649c-1.618-1.618-1.568-4.184-.01-5.74 0-.01.01-.01.01-.01 1.555-1.577 4.149-1.601 5.75 0l4.64 4.64c1.591 1.591 1.584 4.155 0 5.759z"/><path d="m168 94.26c3.591-3.591 3.471-9.347 0-12.82l-4.641-4.64c-3.518-3.538-9.291-3.559-12.829 0 0 0-.011 0-.011.01-3.519 3.521-3.523 9.276.011 12.811l4.649 4.64c3.405 3.425 9.16 3.639 12.821-.001zm-13.931-8.18c-1.623-1.625-1.547-4.203-.01-5.74.01-.01.01-.01.01-.01 1.606-1.606 4.18-1.572 5.75 0l4.641 4.64c1.595 1.597 1.58 4.179 0 5.76-1.595 1.575-4.143 1.588-5.75 0z"/><path d="m63.75 32.665h1.63v39.495c0 21.752 10.468 41.594 27.5 53.989 1.369 1.017 1.38 2.995 0 4.04-11.585 8.423-20.573 20.665-24.82 35.19-.399 1.346.382 2.716 1.7 3.1 1.282.391 2.71-.366 3.1-1.699 3.801-12.98 11.95-24.54 22.96-32.551 4.127-3.005 4.115-9.139 0-12.13-15.93-11.599-25.44-30.269-25.45-49.939v-39.495h115.25v12.495c0 1.38 1.13 2.5 2.51 2.5 1.37 0 2.49-1.12 2.49-2.5v-12.495h1.715c8.086 0 14.665-6.579 14.665-14.665s-6.579-14.665-14.665-14.665h-128.67c-8.086 0-14.665 6.579-14.665 14.665s6.579 14.665 14.75 14.665zm-.085-24.33h128.67c5.329 0 9.665 4.336 9.665 9.665s-4.336 9.665-9.75 9.665c-6.386 0-122.227 0-128.585 0-5.329 0-9.665-4.336-9.665-9.665s4.336-9.665 9.665-9.665z"/><path d="m192.33 223.33h-1.701l-.009-39.17c0-21.808-10.538-41.634-27.5-53.98-1.374-1.02-1.375-3.019 0-4.04 16.863-12.252 27.5-32.03 27.5-53.979v-7c0-1.37-1.12-2.5-2.49-2.5-1.38 0-2.5 1.12-2.5 2.489l-.01.011v7c0 19.67-9.511 38.34-25.44 49.939-4.11 2.972-4.129 9.134 0 12.12 15.93 11.61 25.44 30.28 25.44 49.94v39.17h-115.25v-37.5c0-1.37-1.12-2.49-2.49-2.49-1.38 0-2.5 1.12-2.5 2.49v37.5h-1.72c-8.08.01-14.66 6.59-14.66 14.67 0 8.09 6.58 14.66 14.66 14.66h83.189c1.38 0 2.5-1.12 2.5-2.5 0-1.37-1.12-2.49-2.5-2.49h-83.189c-5.32-.01-9.65-4.351-9.66-9.67.01-5.32 4.34-9.66 9.66-9.66h128.67c5.319 0 9.66 4.34 9.67 9.66-.01 5.319-4.351 9.66-9.67 9.67h-25.48c-1.38 0-2.5 1.12-2.5 2.49 0 1.38 1.12 2.51 2.5 2.51 0 0 .01 0 .01-.01h25.471c8.09 0 14.67-6.57 14.67-14.66-.001-8.08-6.581-14.66-14.671-14.67z"/><path d="m156.85 247.67c-1.38 0-2.5 1.12-2.5 2.49 0 1.38 1.12 2.5 2.5 2.5s2.5-1.12 2.5-2.5c0-1.37-1.121-2.49-2.5-2.49z"/></g></g></svg>